<?xml version="1.0" standalone="no"?>
<!DOCTYPE svg PUBLIC "-//W3C//DTD SVG 20010904//EN"
 "http://www.w3.org/TR/2001/REC-SVG-20010904/DTD/svg10.dtd">
<svg version="1.0" xmlns="http://www.w3.org/2000/svg"
 width="764.000000pt" height="761.000000pt" viewBox="0 0 764.000000 761.000000"
 preserveAspectRatio="xMidYMid meet">

<g transform="translate(0.000000,761.000000) scale(0.100000,-0.100000)"
fill="#000000" stroke="none">
<path d="M3545 7503 c-200 -13 -515 -68 -735 -128 -660 -182 -1268 -554 -1737
-1064 -179 -195 -353 -430 -477 -645 -306 -530 -469 -1085 -496 -1688 -21
-485 39 -930 186 -1367 272 -806 824 -1504 1547 -1958 453 -285 931 -456 1507
-540 180 -26 726 -26 920 0 1037 140 1917 656 2532 1483 368 496 603 1079 695
1724 26 182 26 782 0 955 -66 446 -167 780 -347 1150 -353 724 -917 1300
-1635 1671 -308 160 -611 267 -955 339 -284 60 -700 88 -1005 68z m-750 -1522
c111 -11 305 -38 338 -47 15 -5 17 -23 17 -186 l0 -180 -27 5 c-16 2 -80 14
-143 25 -179 33 -342 42 -736 42 l-364 0 0 -1500 0 -1500 423 0 c431 0 588 9
755 45 40 8 78 15 83 15 8 0 14 -370 7 -370 -2 0 -64 -10 -138 -22 -127 -20
-174 -22 -832 -25 l-698 -4 0 1862 0 1862 603 -6 c331 -3 652 -11 712 -16z
m805 -80 l0 -100 108 -53 c167 -84 275 -160 398 -283 122 -121 168 -180 241
-307 112 -195 181 -425 217 -720 l6 -48 -209 0 -209 0 -7 58 c-35 289 -161
575 -333 756 -53 55 -188 166 -203 166 -6 0 -8 -198 -7 -517 l3 -518 1045 -3
1045 -2 0 832 0 833 200 0 200 0 3 -1857 2 -1858 -205 0 -206 0 3 855 3 855
-1047 0 -1048 0 0 -540 c0 -446 2 -540 13 -540 18 0 148 112 218 187 160 173
282 455 314 723 3 30 8 67 11 83 l6 27 205 0 205 0 -6 -27 c-3 -16 -8 -53 -11
-83 -11 -88 -51 -268 -81 -355 -143 -425 -396 -725 -797 -944 l-77 -43 0 -99
0 -99 -195 0 -195 0 -2 1853 c-2 1018 -2 1855 0 1860 2 4 91 7 198 7 l194 0 0
-99z m-1307 -4176 l28 -35 -28 0 c-17 0 -46 14 -72 35 l-44 35 44 0 c38 0 48
-5 72 -35z m-739 5 c79 -18 127 -73 134 -154 3 -44 0 -62 -19 -96 -39 -69 -75
-84 -211 -89 l-118 -3 0 76 c0 74 -1 76 -25 76 -20 0 -25 5 -25 25 0 20 5 25
25 25 24 0 25 2 25 75 l0 75 88 0 c48 0 105 -5 126 -10z m1803 -9 c113 -52
131 -212 33 -295 -18 -14 -36 -26 -41 -26 -5 0 -9 -4 -9 -10 0 -17 50 -23 77
-9 22 12 27 11 39 -6 19 -26 18 -28 -15 -48 -53 -31 -114 -20 -172 31 -19 16
-49 33 -67 37 -105 22 -156 160 -97 260 46 79 159 108 252 66z m1993 -51 l0
-70 80 0 80 0 0 70 0 70 40 0 40 0 0 -175 0 -175 -40 0 -40 0 0 70 0 70 -80 0
-80 0 0 -70 0 -70 -40 0 -40 0 0 175 0 175 40 0 40 0 0 -70z m-3366 -24 c72
-30 101 -108 67 -179 -27 -55 -65 -77 -133 -77 -88 0 -141 49 -142 131 -2 103
106 168 208 125z m387 -24 c28 -31 29 -37 29 -132 l0 -100 -35 0 c-26 0 -35 4
-35 17 0 15 -1 15 -18 0 -12 -11 -36 -17 -64 -17 -60 0 -98 29 -98 74 0 50 35
77 109 83 66 6 81 24 36 45 -19 8 -35 8 -67 -1 -37 -12 -43 -11 -55 5 -19 26
-16 33 20 50 20 9 54 13 91 11 52 -3 63 -7 87 -35z m219 23 c0 -14 3 -14 30 0
50 26 97 20 136 -19 l34 -34 0 -101 0 -101 -40 0 -40 0 0 88 c0 96 -7 112 -51
112 -48 0 -59 -22 -59 -116 l0 -84 -40 0 -40 0 0 135 0 135 35 0 c25 0 35 -4
35 -15z m1042 -76 c3 -75 8 -94 23 -105 27 -20 42 -17 70 11 22 22 25 32 25
105 l0 81 38 -3 37 -3 3 -132 3 -133 -40 0 c-22 0 -41 5 -44 13 -4 10 -7 10
-18 0 -7 -7 -35 -13 -62 -13 -40 0 -53 5 -78 29 -28 29 -29 32 -29 135 l0 106
34 0 34 0 4 -91z m488 76 c46 -24 60 -62 60 -165 l0 -90 -34 0 c-19 0 -36 5
-38 11 -3 9 -9 9 -25 0 -37 -19 -104 -14 -130 11 -25 23 -30 66 -13 98 12 22
67 40 123 40 43 0 47 13 11 37 -22 14 -32 15 -67 5 -36 -9 -44 -9 -54 5 -19
25 -16 33 20 48 43 19 111 19 147 0z m250 0 c0 -14 3 -14 30 0 47 24 95 19
132 -14 33 -29 33 -30 36 -135 l4 -106 -41 0 -41 0 0 83 c0 100 -11 120 -60
115 -46 -4 -60 -33 -60 -125 l0 -73 -40 0 -40 0 0 128 c0 71 3 132 7 135 3 4
21 7 40 7 23 0 33 -5 33 -15z m486 0 c25 -19 34 -19 34 0 0 10 11 15 35 15
l35 0 0 -132 c0 -107 -4 -140 -18 -168 -30 -61 -113 -85 -202 -60 -59 17 -65
24 -46 52 16 25 18 25 58 11 71 -24 128 -1 128 51 0 13 -3 13 -27 0 -52 -27
-122 -9 -161 41 -27 34 -29 104 -5 146 31 53 125 77 169 44z m934 -75 c0 -86
1 -90 26 -107 24 -15 29 -15 53 -2 24 14 26 20 31 104 l5 90 38 3 37 3 0 -135
0 -136 -35 0 c-25 0 -35 4 -35 16 0 14 -2 14 -22 0 -29 -21 -102 -20 -133 0
-33 22 -45 64 -45 165 l0 89 40 0 40 0 0 -90z m387 0 c19 -47 36 -86 37 -88 2
-1 20 38 40 88 37 88 38 90 72 90 19 0 34 -4 34 -9 0 -13 -120 -292 -137 -317
-20 -30 -66 -48 -110 -41 -48 8 -58 19 -41 46 9 16 20 21 38 17 30 -5 60 9 60
30 0 8 -19 59 -41 112 -23 53 -48 112 -56 130 l-14 33 41 -3 42 -3 35 -85z"/>
<path d="M1422 1634 c3 -38 4 -39 46 -42 37 -3 42 -6 42 -28 0 -22 -4 -24 -45
-24 l-45 0 0 -40 0 -40 60 0 c38 0 70 6 84 15 53 35 58 121 11 165 -20 19 -40
25 -91 28 l-65 4 3 -38z"/>
<path d="M3207 1659 c-25 -15 -47 -63 -47 -103 0 -25 9 -45 29 -68 25 -28 36
-33 76 -33 40 0 51 5 76 33 41 46 41 111 0 153 -24 23 -38 29 -73 29 -24 0
-51 -5 -61 -11z"/>
<path d="M1893 1590 c-45 -18 -55 -72 -22 -114 28 -35 70 -35 99 1 46 59 -9
140 -77 113z"/>
<path d="M2230 1485 c-17 -21 4 -45 39 -45 31 0 51 16 51 42 0 14 -8 18 -39
18 -22 0 -44 -6 -51 -15z"/>
<path d="M4010 1485 c-10 -12 -10 -18 0 -30 24 -29 90 -11 90 25 0 17 -7 20
-39 20 -22 0 -44 -6 -51 -15z"/>
<path d="M4782 1590 c-29 -12 -42 -48 -30 -80 12 -31 25 -40 64 -40 36 0 64
26 64 61 0 30 -9 43 -37 58 -25 13 -30 13 -61 1z"/>
</g>
</svg>
